<svg width="109" height="20" viewBox="0 0 109 20" fill="none" xmlns="http://www.w3.org/2000/svg">
<g clip-path="url(#clip0)">
<path d="M105.496 3.89836C103.81 3.89836 102.602 5.392 101.36 7.05299C100.591 3.5265 99.7327 0 97.0054 0C94.2781 0 93.4195 3.5265 92.6597 7.05299C91.4242 5.392 90.2104 3.89836 88.524 3.89836C87.4522 3.89836 85.6361 4.63279 85.6361 7.37527V12.3675C85.6361 15.0604 87.0692 15.7205 87.9279 15.9436C89.4104 16.331 92.9809 16.6873 96.9992 16.6873C101.018 16.6873 104.588 16.331 106.068 15.9436C106.929 15.7205 108.362 15.0604 108.362 12.3675V7.37527C108.362 4.63279 106.546 3.89836 105.471 3.89836H105.496ZM97.0054 1.54943C98.6393 1.54943 99.2601 4.78463 100.131 8.67679C99.1767 9.85125 98.1667 10.8026 97.0054 10.8026C95.8441 10.8026 94.8217 9.84816 93.8951 8.67679C94.7075 5.04493 95.3314 1.54943 97.0209 1.54943H97.0054ZM87.1866 12.3675V7.37527C87.1866 5.64301 88.1132 5.45398 88.524 5.45398C89.7131 5.45398 90.9949 7.44654 92.2118 9.04555C91.3377 12.6743 90.4266 14.8745 88.2738 14.4283C87.7116 14.2733 87.1866 13.9169 87.1866 12.3675V12.3675ZM91.4242 14.89C92.3508 13.8519 92.9685 12.2312 93.4318 10.5144C94.4295 11.5618 95.5785 12.352 97.0054 12.352C98.4324 12.352 99.5783 11.5618 100.576 10.5144C101.039 12.2312 101.648 13.8519 102.599 14.89C100.934 15.0449 98.9296 15.1348 97.0054 15.1348C95.0812 15.1348 93.0736 15.0449 91.4088 14.89H91.4242ZM106.824 12.3675C106.824 13.9169 106.296 14.2733 105.737 14.4283C103.575 14.8869 102.67 12.6743 101.808 9.04555C103.028 7.44654 104.307 5.45398 105.496 5.45398C105.898 5.45398 106.837 5.64301 106.837 7.37527L106.824 12.3675Z" fill="#203053"/>
<path d="M0.349009 16.1357C0.303424 16.1352 0.2584 16.1256 0.216525 16.1075C0.174651 16.0894 0.136751 16.0632 0.105005 16.0304C0.0706067 15.9959 0.0435573 15.9548 0.0255036 15.9095C0.00744994 15.8642 -0.00123036 15.8157 -8.94662e-06 15.767C0.00179534 15.7117 0.0132962 15.6571 0.0339663 15.6058L4.32411 4.25783C4.35553 4.13761 4.42225 4.02964 4.51561 3.94795C4.62431 3.85962 4.76207 3.81539 4.90169 3.82399H6.44602C6.58563 3.81539 6.72339 3.85962 6.8321 3.94795C6.92692 4.03192 6.99914 4.13849 7.04213 4.25783L11.3106 15.6058C11.3224 15.6588 11.3286 15.7128 11.3292 15.767C11.3304 15.8157 11.3217 15.8642 11.3037 15.9095C11.2856 15.9548 11.2586 15.9959 11.2242 16.0304C11.1924 16.0632 11.1545 16.0894 11.1126 16.1075C11.0708 16.1256 11.0257 16.1352 10.9802 16.1357H9.76941C9.7094 16.1408 9.64901 16.1332 9.5921 16.1134C9.53519 16.0937 9.48302 16.0622 9.43892 16.0211C9.37931 15.9576 9.33122 15.8842 9.29685 15.8042L8.40422 13.4862H2.92495L2.04777 15.8042C2.01289 15.8818 1.96242 15.9515 1.89951 16.0087C1.85331 16.0495 1.79947 16.0806 1.74114 16.1003C1.6828 16.12 1.62115 16.1278 1.55976 16.1233L0.349009 16.1357ZM3.48399 11.7416H7.84518L5.65532 5.90952L3.48399 11.7416Z" fill="#203053"/>
<path d="M13.133 19.4732C13.0794 19.4754 13.0259 19.4664 12.976 19.4467C12.9261 19.4271 12.8808 19.3972 12.843 19.359C12.8052 19.3208 12.7758 19.2751 12.7566 19.2249C12.7374 19.1747 12.7288 19.121 12.7314 19.0672V7.40315C12.7288 7.34954 12.7373 7.29597 12.7566 7.24589C12.7758 7.19581 12.8053 7.15032 12.8431 7.11237C12.881 7.07442 12.9263 7.04484 12.9762 7.02554C13.0261 7.00623 13.0795 6.99764 13.133 7.0003H14.2356C14.2892 6.99767 14.3427 7.00627 14.3928 7.02554C14.4428 7.04481 14.4884 7.07434 14.5264 7.11224C14.5645 7.15014 14.5943 7.19558 14.6139 7.24567C14.6334 7.29576 14.6424 7.34939 14.6402 7.40315V8.14068C14.9458 7.75747 15.3263 7.44109 15.7583 7.21102C16.288 6.93533 16.8791 6.79987 17.4756 6.81747C18.0402 6.80034 18.6018 6.90606 19.1219 7.12735C19.5633 7.32746 19.9524 7.62767 20.2585 8.00433C20.5718 8.3955 20.8067 8.84377 20.9503 9.32444C21.1125 9.848 21.2039 10.391 21.2221 10.9389C21.2221 11.1373 21.2407 11.3449 21.2407 11.5587C21.2407 11.7725 21.2407 11.974 21.2221 12.1785C21.2152 12.721 21.1299 13.2596 20.9689 13.7775C20.8198 14.2522 20.5853 14.6954 20.277 15.0852C19.9697 15.4691 19.5773 15.7758 19.1311 15.9808C18.6098 16.2098 18.0446 16.3208 17.4756 16.3062C16.9028 16.3238 16.3344 16.2004 15.8201 15.9467C15.3914 15.7221 15.0179 15.4045 14.7267 15.017V19.0455C14.7285 19.0994 14.7193 19.153 14.6997 19.2031C14.68 19.2532 14.6503 19.2987 14.6124 19.3368C14.5711 19.3755 14.5225 19.4056 14.4695 19.4253C14.4164 19.445 14.36 19.4539 14.3036 19.4515L13.133 19.4732ZM16.9876 14.6576C17.4449 14.6857 17.8984 14.5591 18.2756 14.2981C18.5848 14.06 18.8187 13.7371 18.9489 13.3684C19.0934 12.9552 19.1767 12.523 19.196 12.0855C19.2176 11.746 19.2176 11.4055 19.196 11.066C19.1767 10.6285 19.0934 10.1963 18.9489 9.78307C18.8179 9.41482 18.5842 9.09212 18.2756 8.85341C17.9001 8.58714 17.4469 8.4541 16.9876 8.47535C16.5573 8.44584 16.1292 8.55743 15.7676 8.79329C15.4061 9.02916 15.1307 9.37653 14.9831 9.78307C14.8385 10.1569 14.7531 10.5511 14.7298 10.9513C14.7174 11.1579 14.7113 11.381 14.7113 11.6207C14.7113 11.8655 14.7113 12.0948 14.7298 12.3055C14.742 12.6913 14.8312 13.0706 14.9923 13.4211C15.1551 13.7765 15.4087 14.0822 15.7274 14.3074C16.0999 14.5551 16.5412 14.6777 16.9876 14.6576V14.6576Z" fill="#203053"/>
<path d="M23.3842 19.4732C23.3309 19.4745 23.2778 19.4648 23.2283 19.4448C23.1788 19.4249 23.1339 19.395 23.0963 19.357C23.0587 19.319 23.0293 19.2737 23.0097 19.2238C22.9902 19.174 22.981 19.1207 22.9827 19.0672V7.40315C22.9805 7.34966 22.9894 7.2963 23.0088 7.24643C23.0282 7.19657 23.0577 7.15128 23.0954 7.11343C23.1332 7.07557 23.1783 7.04598 23.228 7.02651C23.2777 7.00703 23.3309 6.99811 23.3842 7.0003H24.4899C24.5428 6.99883 24.5954 7.00795 24.6447 7.0271C24.6941 7.04625 24.7391 7.07506 24.7772 7.11185C24.8151 7.14998 24.8448 7.19551 24.8644 7.24561C24.8841 7.29571 24.8933 7.34933 24.8915 7.40315V8.14067C25.1975 7.7567 25.5792 7.44021 26.0127 7.21102C26.5412 6.93506 27.1313 6.79957 27.7269 6.81746C28.2915 6.80005 28.8532 6.90577 29.3731 7.12735C29.8155 7.32734 30.2056 7.62753 30.5128 8.00432C30.823 8.40071 31.0547 8.85302 31.1954 9.33683C31.356 9.86075 31.4474 10.4036 31.4672 10.9513C31.4672 11.1497 31.4672 11.3573 31.4672 11.5711C31.4672 11.7849 31.4672 11.9864 31.4672 12.1909C31.4593 12.7335 31.373 13.2721 31.2109 13.7899C31.0631 14.2651 30.8285 14.7086 30.519 15.0976C30.2117 15.4815 29.8193 15.7882 29.3731 15.9932C28.8518 16.2224 28.2866 16.3335 27.7176 16.3185C27.1458 16.3363 26.5783 16.2129 26.0652 15.9591C25.635 15.7354 25.2603 15.4177 24.9687 15.0294V19.0579C24.9705 19.1117 24.9613 19.1654 24.9417 19.2155C24.922 19.2656 24.8923 19.3111 24.8544 19.3492C24.8135 19.3885 24.765 19.419 24.7118 19.4387C24.6587 19.4584 24.6021 19.467 24.5455 19.4639L23.3842 19.4732ZM27.2389 14.6576C27.664 14.6961 28.0896 14.5886 28.446 14.3527C28.8023 14.1168 29.0682 13.7665 29.2001 13.3591C29.3427 12.9488 29.4249 12.5197 29.4442 12.0855C29.4658 11.746 29.4658 11.4055 29.4442 11.066C29.4258 10.6287 29.3436 10.1964 29.2001 9.78307C29.0682 9.37572 28.8023 9.0254 28.446 8.78951C28.0896 8.55361 27.664 8.44612 27.2389 8.48465C26.8081 8.45444 26.3792 8.5657 26.017 8.80161C25.6549 9.03753 25.379 9.38529 25.2312 9.79236C25.0882 10.1666 25.0028 10.5606 24.978 10.9606C24.978 11.159 24.9625 11.3821 24.9625 11.63C24.9625 11.8779 24.9625 12.1041 24.978 12.3148C24.9901 12.7006 25.0794 13.0799 25.2405 13.4304C25.4033 13.7858 25.6569 14.0915 25.9756 14.3167C26.3501 14.5615 26.7924 14.6809 27.2389 14.6576V14.6576Z" fill="#203053"/>
<path d="M37.7341 16.3093C36.8296 16.3364 35.9294 16.175 35.0902 15.8352C34.4489 15.572 33.8876 15.1446 33.4625 14.5956C33.1045 14.1262 32.8967 13.559 32.8664 12.9687C32.8666 12.9229 32.876 12.8777 32.8941 12.8356C32.9121 12.7935 32.9384 12.7555 32.9714 12.7239C33.0056 12.6893 33.0466 12.662 33.0918 12.6439C33.1369 12.6258 33.1853 12.6171 33.2339 12.6186H34.4694C34.5806 12.6115 34.6906 12.6456 34.7783 12.7146C34.8501 12.7823 34.9097 12.862 34.9543 12.9501C35.0388 13.2248 35.1822 13.4776 35.3744 13.6908C35.6178 13.9623 35.92 14.1743 36.2577 14.3105C36.7235 14.4894 37.2203 14.5727 37.7187 14.5553C38.6412 14.5553 39.3217 14.3973 39.7603 14.0812C39.9694 13.9375 40.1391 13.7432 40.2536 13.5162C40.368 13.2893 40.4236 13.037 40.4151 12.7828C40.4215 12.6184 40.3938 12.4544 40.3337 12.3013C40.2737 12.1482 40.1825 12.0093 40.0661 11.8934C39.7469 11.6184 39.3777 11.408 38.9788 11.2736C38.4908 11.0877 37.8546 10.8863 37.0731 10.6756C36.3275 10.4868 35.603 10.222 34.9111 9.88536C34.3876 9.64135 33.9402 9.25891 33.6169 8.77907C33.3132 8.27112 33.164 7.68519 33.1876 7.0933C33.179 6.46608 33.3658 5.85182 33.722 5.33625C34.108 4.79657 34.6349 4.37411 35.2447 4.1153C35.9949 3.7992 36.8033 3.64606 37.6167 3.66596C38.2833 3.65674 38.9466 3.76154 39.578 3.97585C40.0939 4.1479 40.5727 4.41598 40.9896 4.76606C41.3393 5.05911 41.6297 5.41678 41.8451 5.81967C42.0298 6.16039 42.1354 6.53856 42.154 6.92596C42.1511 7.01491 42.1159 7.09975 42.0551 7.16457C42.0218 7.2027 41.9803 7.2328 41.9338 7.25265C41.8873 7.2725 41.8369 7.28158 41.7864 7.27923H40.5077C40.4126 7.2788 40.3191 7.25428 40.2359 7.20795C40.139 7.1479 40.0675 7.05413 40.0352 6.94455C39.9912 6.72293 39.9014 6.51302 39.7716 6.32835C39.6418 6.14368 39.4748 5.98834 39.2815 5.87235C38.783 5.56178 38.2031 5.40849 37.6167 5.43231C37.0339 5.40659 36.4554 5.54392 35.9458 5.82896C35.7366 5.95737 35.5665 6.14075 35.4538 6.35925C35.3411 6.57775 35.2901 6.82303 35.3064 7.0685C35.2948 7.39518 35.4049 7.71449 35.6153 7.96407C35.8917 8.24258 36.2276 8.45449 36.5975 8.58384C37.179 8.81072 37.7717 9.00724 38.3735 9.17263C39.1953 9.35859 39.9979 9.62214 40.7703 9.95974C41.3145 10.1898 41.7848 10.5662 42.1293 11.0474C42.4369 11.5517 42.5885 12.1362 42.5648 12.727C42.5828 13.4169 42.3709 14.093 41.9625 14.6483C41.5284 15.2104 40.9465 15.6397 40.2823 15.8878C39.4675 16.1905 38.6025 16.3335 37.7341 16.3093Z" fill="#203053"/>
<path d="M44.4056 5.38268C44.3491 5.3858 44.2925 5.37723 44.2394 5.3575C44.1862 5.33778 44.1377 5.30733 44.0968 5.26802C44.0588 5.23059 44.029 5.18563 44.0094 5.13601C43.9897 5.08639 43.9805 5.0332 43.9825 4.97983V3.87044C43.9794 3.81369 43.9879 3.75691 44.0076 3.7036C44.0272 3.6503 44.0576 3.60161 44.0968 3.56056C44.1367 3.51927 44.1848 3.48689 44.238 3.46554C44.2913 3.44418 44.3484 3.43432 44.4056 3.4366H45.7369C45.794 3.43561 45.8507 3.44606 45.9037 3.46735C45.9568 3.48863 46.005 3.52032 46.0457 3.56056C46.0873 3.60023 46.1199 3.64846 46.1413 3.70194C46.1626 3.75543 46.1721 3.81291 46.1693 3.87044V4.97983C46.1708 5.034 46.1606 5.08786 46.1393 5.13764C46.1179 5.18742 46.086 5.23192 46.0457 5.26802C45.9617 5.34533 45.8508 5.3865 45.7369 5.38268H44.4056ZM44.5107 16.1357C44.4542 16.1381 44.3978 16.1292 44.3447 16.1095C44.2917 16.0898 44.2431 16.0598 44.2018 16.021C44.1639 15.9829 44.1342 15.9374 44.1145 15.8873C44.0949 15.8372 44.0857 15.7836 44.0875 15.7298V7.40314C44.0857 7.34932 44.0949 7.2957 44.1145 7.2456C44.1342 7.19549 44.1639 7.14997 44.2018 7.11184C44.2433 7.07354 44.292 7.04395 44.345 7.02479C44.398 7.00563 44.4544 6.9973 44.5107 7.00028H45.6504C45.7037 6.9981 45.7569 7.00702 45.8066 7.02649C45.8563 7.04597 45.9014 7.07556 45.9391 7.11342C45.9769 7.15127 46.0064 7.19656 46.0258 7.24642C46.0452 7.29629 46.0541 7.34965 46.0519 7.40314V15.7298C46.0537 15.7836 46.0445 15.8372 46.0249 15.8873C46.0052 15.9374 45.9755 15.9829 45.9376 16.021C45.8999 16.0585 45.855 16.088 45.8056 16.1077C45.7563 16.1274 45.7035 16.1369 45.6504 16.1357H44.5107Z" fill="#203053"/>
<path d="M52.0438 20C51.3519 20.0231 50.6619 19.9127 50.0115 19.6746C49.5527 19.4979 49.133 19.2326 48.7761 18.8937C48.5025 18.6326 48.2831 18.3198 48.1305 17.9734C48.0265 17.7392 47.9588 17.4905 47.9298 17.2358C47.9208 17.1795 47.9257 17.1218 47.944 17.0678C47.9623 17.0138 47.9934 16.9651 48.0348 16.9259C48.0747 16.8849 48.1229 16.8529 48.1762 16.832C48.2295 16.8112 48.2866 16.802 48.3436 16.8051H49.5359C49.6282 16.8012 49.7195 16.825 49.7984 16.8733C49.8882 16.9549 49.9489 17.0637 49.9714 17.1832C50.0582 17.3707 50.1615 17.5502 50.2802 17.7193C50.4333 17.9338 50.6385 18.1055 50.8763 18.2182C51.2218 18.3758 51.5999 18.448 51.979 18.4289C52.4049 18.441 52.8292 18.3727 53.2299 18.2275C53.565 18.0918 53.8394 17.8385 54.0021 17.5147C54.2012 17.0813 54.2933 16.6062 54.2708 16.1295V14.9396C53.9612 15.3043 53.578 15.599 53.1465 15.8042C52.626 16.0437 52.0571 16.1583 51.4848 16.1388C50.9171 16.1571 50.3522 16.0514 49.8293 15.829C49.3836 15.6302 48.9926 15.3261 48.6896 14.9427C48.3838 14.5457 48.1525 14.0963 48.007 13.6164C47.8457 13.0868 47.7604 12.5369 47.7537 11.9833C47.7414 11.6672 47.7414 11.3449 47.7537 11.0164C47.7621 10.4745 47.8453 9.93643 48.0008 9.41743C48.139 8.92412 48.3707 8.46221 48.6834 8.05703C48.99 7.66853 49.3822 7.35667 49.8293 7.14597C50.3494 6.91262 50.9153 6.80032 51.4848 6.81749C52.0769 6.79663 52.6643 6.93009 53.1897 7.20484C53.6271 7.44019 54.0118 7.7629 54.3202 8.15309V7.43726C54.3176 7.38056 54.3264 7.32393 54.346 7.2707C54.3657 7.21748 54.3957 7.16874 54.4345 7.12737C54.4745 7.08649 54.5228 7.05458 54.576 7.03375C54.6292 7.01292 54.6863 7.00364 54.7433 7.00652H55.846C55.902 7.00561 55.9577 7.01623 56.0095 7.03772C56.0613 7.05921 56.1082 7.09111 56.1473 7.13146C56.1863 7.17182 56.2167 7.21976 56.2366 7.27235C56.2565 7.32494 56.2655 7.38106 56.2629 7.43726V15.925C56.2798 16.6616 56.1342 17.3928 55.8367 18.0663C55.55 18.6762 55.0729 19.1755 54.4777 19.4887C53.7217 19.8604 52.885 20.0362 52.0438 20ZM51.9913 14.5181C52.4435 14.5396 52.89 14.4099 53.2608 14.1494C53.5773 13.9077 53.8254 13.5872 53.9804 13.2197C54.1368 12.8554 54.2277 12.4662 54.2491 12.07C54.2491 11.9182 54.2677 11.723 54.2677 11.4813C54.2677 11.2396 54.2677 11.0505 54.2491 10.9111C54.2274 10.512 54.1365 10.1198 53.9804 9.7521C53.8287 9.38263 53.58 9.06134 53.2608 8.82245C52.8877 8.56774 52.4421 8.44158 51.9913 8.46298C51.5346 8.43999 51.0827 8.56611 50.7034 8.82245C50.3867 9.05741 50.1461 9.38076 50.0115 9.7521C49.868 10.1655 49.7858 10.5977 49.7675 11.035C49.7675 11.3449 49.7675 11.6207 49.7675 11.9151C49.7875 12.3492 49.8697 12.7781 50.0115 13.1887C50.1434 13.5666 50.3842 13.8967 50.7034 14.137C51.0801 14.401 51.5322 14.5348 51.9913 14.5181V14.5181Z" fill="#203053"/>
<path d="M58.7246 16.1357C58.6681 16.1381 58.6117 16.1292 58.5587 16.1095C58.5057 16.0899 58.4571 16.0598 58.4158 16.0211C58.3784 15.9825 58.3491 15.9369 58.3295 15.8869C58.3099 15.8369 58.3004 15.7835 58.3015 15.7298V7.40316C58.3004 7.34944 58.3099 7.29602 58.3295 7.24602C58.3491 7.19602 58.3784 7.15042 58.4158 7.11187C58.4572 7.07357 58.5059 7.04397 58.559 7.02481C58.612 7.00566 58.6683 6.99733 58.7246 7.00031H59.8458C59.8994 6.99768 59.9529 7.00628 60.003 7.02555C60.053 7.04483 60.0986 7.07435 60.1366 7.11225C60.1747 7.15016 60.2045 7.1956 60.2241 7.24568C60.2437 7.29577 60.2526 7.3494 60.2504 7.40316V8.15928C60.5737 7.76433 60.9728 7.43868 61.4241 7.20174C61.972 6.92821 62.5792 6.79613 63.1908 6.81748C63.8547 6.79858 64.5103 6.96947 65.0811 7.3102C65.6091 7.63724 66.03 8.11234 66.2918 8.67679C66.5879 9.33543 66.7325 10.0524 66.715 10.7747V15.7329C66.716 15.7874 66.7055 15.8416 66.6842 15.8918C66.6629 15.942 66.6313 15.9871 66.5914 16.0242C66.55 16.0627 66.5014 16.0927 66.4484 16.1124C66.3954 16.1321 66.3391 16.1411 66.2826 16.1388H65.0718C65.0187 16.1401 64.9659 16.1305 64.9166 16.1108C64.8672 16.0911 64.8223 16.0617 64.7846 16.0242C64.7467 15.986 64.717 15.9405 64.6973 15.8904C64.6777 15.8403 64.6685 15.7867 64.6703 15.7329V10.8646C64.7077 10.2306 64.5109 9.60504 64.1174 9.10753C63.9153 8.89331 63.6684 8.72665 63.3944 8.61949C63.1205 8.51234 62.8263 8.46735 62.5329 8.48776C62.2379 8.4731 61.9431 8.52068 61.6675 8.62743C61.3919 8.73419 61.1417 8.89774 60.933 9.10753C60.7197 9.34512 60.5554 9.62266 60.4494 9.9242C60.3434 10.2257 60.2978 10.5453 60.3153 10.8646V15.7298C60.3169 15.7844 60.3067 15.8387 60.2854 15.889C60.264 15.9393 60.2321 15.9844 60.1917 16.0211C60.1505 16.0599 60.1019 16.0901 60.0489 16.1098C59.9958 16.1295 59.9394 16.1383 59.8829 16.1357H58.7246Z" fill="#203053"/>
<path d="M71.3232 16.3093C70.7623 16.3167 70.2073 16.1937 69.7017 15.9498C69.2436 15.7314 68.8467 15.4024 68.5465 14.9923C68.2617 14.5979 68.1111 14.1219 68.1172 13.635C68.108 13.2549 68.193 12.8784 68.3644 12.5394C68.5358 12.2003 68.7883 11.9091 69.0994 11.692C69.8698 11.1604 70.7607 10.8312 71.6908 10.7344L74.1617 10.3657V9.93184C74.1766 9.70765 74.1471 9.48272 74.075 9.26999C74.0029 9.05726 73.8896 8.86093 73.7416 8.6923C73.4606 8.40101 72.9942 8.25536 72.3394 8.25536C71.9358 8.23658 71.5351 8.33331 71.1842 8.53426C70.9055 8.71634 70.6897 8.98045 70.5665 9.29038C70.5315 9.3623 70.4763 9.42235 70.4077 9.46311C70.3391 9.50387 70.2601 9.52354 70.1804 9.5197H69.0963C69.0432 9.5241 68.9898 9.51697 68.9397 9.49879C68.8896 9.48061 68.844 9.4518 68.806 9.41433C68.7404 9.33545 68.7063 9.23498 68.7102 9.13234C68.7408 8.9013 68.8152 8.67828 68.9295 8.47538C69.0896 8.17735 69.3069 7.91406 69.5689 7.70067C69.9059 7.42815 70.2887 7.21826 70.6993 7.0809C71.2309 6.89943 71.7903 6.81341 72.3517 6.82679C72.9704 6.80961 73.5873 6.90192 74.174 7.09949C74.6153 7.24963 75.0167 7.49868 75.3477 7.82772C75.6352 8.12772 75.8534 8.4874 75.9871 8.88133C76.121 9.28075 76.1888 9.69947 76.1878 10.1209V15.7298C76.1895 15.7844 76.1793 15.8388 76.1579 15.889C76.1366 15.9393 76.1047 15.9844 76.0643 16.0211C76.0231 16.0599 75.9745 16.0901 75.9214 16.1098C75.8684 16.1295 75.8119 16.1383 75.7554 16.1357H74.6343C74.5807 16.138 74.5272 16.129 74.4773 16.1093C74.4274 16.0896 74.3821 16.0598 74.3443 16.0216C74.3065 15.9834 74.2771 15.9377 74.2579 15.8875C74.2387 15.8372 74.2301 15.7835 74.2327 15.7298V14.9923C74.0595 15.2293 73.8512 15.4383 73.615 15.612C73.3347 15.8278 73.0219 15.9973 72.6884 16.1141C72.2469 16.2528 71.7858 16.3187 71.3232 16.3093V16.3093ZM71.8143 14.8156C72.2344 14.8211 72.6493 14.722 73.022 14.5274C73.3917 14.3241 73.6911 14.0128 73.8806 13.635C74.1044 13.1635 74.2104 12.6445 74.1895 12.1227V11.6889L72.2961 11.9988C71.6949 12.0512 71.1127 12.2364 70.5912 12.5411C70.4231 12.6369 70.2823 12.7744 70.1822 12.9404C70.0822 13.1064 70.0263 13.2954 70.0198 13.4893C70.0091 13.7628 70.103 14.0299 70.2823 14.2361C70.4654 14.4355 70.6945 14.5867 70.9495 14.6762C71.2272 14.774 71.5201 14.8212 71.8143 14.8156Z" fill="#203053"/>
<path d="M78.597 16.1357C78.5434 16.138 78.49 16.1289 78.4401 16.1093C78.3901 16.0896 78.3449 16.0598 78.3071 16.0216C78.2693 15.9834 78.2399 15.9377 78.2207 15.8875C78.2014 15.8372 78.1929 15.7835 78.1955 15.7298V4.0657C78.1929 4.01196 78.2014 3.95826 78.2207 3.90803C78.2399 3.85779 78.2693 3.81212 78.3071 3.77393C78.3449 3.73574 78.3901 3.70586 78.4401 3.6862C78.49 3.66654 78.5434 3.65754 78.597 3.65975H79.7522C79.8058 3.65754 79.8592 3.66654 79.9091 3.6862C79.9591 3.70586 80.0043 3.73574 80.0421 3.77393C80.0799 3.81212 80.1093 3.85779 80.1285 3.90803C80.1478 3.95826 80.1563 4.01196 80.1537 4.0657V15.7298C80.1563 15.7835 80.1478 15.8372 80.1285 15.8875C80.1093 15.9377 80.0799 15.9834 80.0421 16.0216C80.0043 16.0598 79.9591 16.0896 79.9091 16.1093C79.8592 16.1289 79.8058 16.138 79.7522 16.1357H78.597Z" fill="#203053"/>
</g>
<defs>
<clipPath id="clip0">
<rect width="108.387" height="20" fill="white"/>
</clipPath>
</defs>
</svg>
